<svg width="1440" height="1000" viewBox="0 0 1440 1000" fill="none" xmlns="http://www.w3.org/2000/svg">
  <defs>
    <linearGradient id="brand" x1="0" y1="0" x2="1" y2="1">
      <stop offset="0" stop-color="#103F52"/>
      <stop offset="1" stop-color="#23CFA7"/>
    </linearGradient>
    <linearGradient id="soft" x1="0" y1="0" x2="1" y2="1">
      <stop offset="0" stop-color="#E8F7F4"/>
      <stop offset="1" stop-color="#F7FAFC"/>
    </linearGradient>
    <filter id="shadow" x="-20%" y="-20%" width="140%" height="140%" color-interpolation-filters="sRGB">
      <feDropShadow dx="0" dy="14" stdDeviation="24" flood-color="#153745" flood-opacity="0.12"/>
    </filter>
    <filter id="smallShadow" x="-20%" y="-20%" width="140%" height="140%" color-interpolation-filters="sRGB">
      <feDropShadow dx="0" dy="6" stdDeviation="12" flood-color="#153745" flood-opacity="0.10"/>
    </filter>
  </defs>

  <rect width="1440" height="1000" fill="#F4F8F8"/>
  <rect x="28" y="28" width="1384" height="944" rx="28" fill="#FFFFFF" filter="url(#shadow)"/>

  <rect x="28" y="28" width="244" height="944" rx="28" fill="#EEF6F5"/>
  <rect x="271" y="28" width="1" height="944" fill="#DCE8E8"/>
  <rect x="272" y="28" width="1140" height="72" rx="0" fill="#FFFFFF"/>
  <rect x="272" y="99" width="1140" height="1" fill="#E6EEEE"/>

  <g transform="translate(58 54)">
    <rect width="40" height="40" rx="12" fill="url(#brand)"/>
    <path d="M12 25C18 13 25 12 31 17" stroke="#FFFFFF" stroke-width="3.2" stroke-linecap="round"/>
    <path d="M12 16H28" stroke="#B7FFF0" stroke-width="3.2" stroke-linecap="round"/>
    <circle cx="29" cy="17" r="3" fill="#FFFFFF"/>
    <text x="52" y="27" font-family="Inter, Arial, sans-serif" font-size="22" font-weight="800" fill="#182A2E">Flow</text>
    <text x="104" y="27" font-family="Inter, Arial, sans-serif" font-size="22" font-weight="800" fill="#1AAE91">Mint</text>
  </g>

  <g font-family="Inter, Arial, sans-serif" font-size="14" font-weight="650">
    <g transform="translate(52 132)">
      <rect width="188" height="42" rx="12" fill="#DDF1ED"/>
      <rect x="0" y="10" width="3" height="22" rx="1.5" fill="url(#brand)"/>
      <rect x="18" y="12" width="18" height="18" rx="5" fill="#FFFFFF"/>
      <text x="48" y="27" fill="#123942">Content Hub</text>
    </g>
    <g transform="translate(52 188)" fill="#6A7B80">
      <rect x="18" y="12" width="18" height="18" rx="5" fill="#FFFFFF"/>
      <text x="48" y="27">AI Publish</text>
    </g>
    <g transform="translate(52 244)" fill="#6A7B80">
      <rect x="18" y="12" width="18" height="18" rx="5" fill="#FFFFFF"/>
      <text x="48" y="27">Task History</text>
    </g>
    <g transform="translate(52 300)" fill="#6A7B80">
      <rect x="18" y="12" width="18" height="18" rx="5" fill="#FFFFFF"/>
      <text x="48" y="27">Channels</text>
    </g>
    <g transform="translate(52 356)" fill="#6A7B80">
      <rect x="18" y="12" width="18" height="18" rx="5" fill="#FFFFFF"/>
      <text x="48" y="27">Agent Assets</text>
    </g>
  </g>

  <g transform="translate(52 832)" font-family="Inter, Arial, sans-serif">
    <rect width="188" height="92" rx="18" fill="#FFFFFF" stroke="#DDE9E8"/>
    <circle cx="30" cy="30" r="14" fill="url(#brand)"/>
    <text x="54" y="28" font-size="13" font-weight="700" fill="#183137">Workspace</text>
    <text x="54" y="49" font-size="12" fill="#6A7B80">Creator team</text>
    <rect x="18" y="64" width="152" height="8" rx="4" fill="#EEF4F4"/>
    <rect x="18" y="64" width="92" height="8" rx="4" fill="#23CFA7"/>
  </g>

  <g transform="translate(304 50)" font-family="Inter, Arial, sans-serif">
    <text x="0" y="30" font-size="14" fill="#728286">FlowMint</text>
    <text x="72" y="30" font-size="14" fill="#C0CACA">/</text>
    <text x="90" y="30" font-size="14" font-weight="700" fill="#1B3035">Content Hub</text>
  </g>
  <g transform="translate(1084 48)">
    <rect width="170" height="36" rx="18" fill="#F3F7F7" stroke="#E1EAEA"/>
    <text x="18" y="23" font-family="Inter, Arial, sans-serif" font-size="13" fill="#607378">Search flows</text>
    <circle cx="226" cy="18" r="18" fill="#F3F7F7" stroke="#E1EAEA"/>
    <circle cx="284" cy="18" r="18" fill="url(#brand)"/>
  </g>

  <g transform="translate(304 132)" font-family="Inter, Arial, sans-serif">
    <text x="0" y="28" font-size="28" font-weight="800" fill="#172B30">Content growth cockpit</text>
    <text x="0" y="58" font-size="15" fill="#66777C">Create, adapt, schedule, and track multi-platform content from one focused workspace.</text>
    <rect x="820" y="4" width="132" height="42" rx="12" fill="#FFFFFF" stroke="#DDE9E8"/>
    <text x="848" y="30" font-size="14" font-weight="700" fill="#2B4147">Import</text>
    <rect x="968" y="4" width="128" height="42" rx="12" fill="url(#brand)" filter="url(#smallShadow)"/>
    <text x="995" y="30" font-size="14" font-weight="800" fill="#FFFFFF">New Flow</text>
  </g>

  <g transform="translate(304 222)">
    <rect width="1096" height="88" rx="18" fill="url(#soft)" stroke="#DDE9E8"/>
    <g font-family="Inter, Arial, sans-serif">
      <text x="26" y="34" font-size="13" font-weight="750" fill="#64787C">ACTIVE PIPELINE</text>
      <text x="26" y="62" font-size="22" font-weight="850" fill="#172B30">Spring creator launch</text>
      <g transform="translate(340 22)">
        <rect width="140" height="44" rx="14" fill="#FFFFFF"/>
        <text x="18" y="18" font-size="12" fill="#708085">Drafts</text>
        <text x="18" y="36" font-size="18" font-weight="800" fill="#172B30">128</text>
      </g>
      <g transform="translate(500 22)">
        <rect width="140" height="44" rx="14" fill="#FFFFFF"/>
        <text x="18" y="18" font-size="12" fill="#708085">Scheduled</text>
        <text x="18" y="36" font-size="18" font-weight="800" fill="#172B30">42</text>
      </g>
      <g transform="translate(660 22)">
        <rect width="140" height="44" rx="14" fill="#FFFFFF"/>
        <text x="18" y="18" font-size="12" fill="#708085">Published</text>
        <text x="18" y="36" font-size="18" font-weight="800" fill="#172B30">319</text>
      </g>
      <g transform="translate(854 26)">
        <rect width="198" height="36" rx="18" fill="#E2F4F0"/>
        <circle cx="22" cy="18" r="5" fill="#23CFA7"/>
        <text x="40" y="23" font-size="13" font-weight="750" fill="#174A45">AI queue healthy</text>
      </g>
    </g>
  </g>

  <g transform="translate(304 342)" font-family="Inter, Arial, sans-serif">
    <rect width="690" height="326" rx="20" fill="#FFFFFF" stroke="#DDE9E8" filter="url(#smallShadow)"/>
    <text x="26" y="38" font-size="18" font-weight="800" fill="#172B30">Draft board</text>
    <text x="26" y="62" font-size="13" fill="#6C7E82">AI-assisted content ready for review</text>

    <g transform="translate(26 88)">
      <rect width="638" height="62" rx="14" fill="#F7FAFA" stroke="#E8F0F0"/>
      <rect x="16" y="15" width="32" height="32" rx="10" fill="#DDF1ED"/>
      <text x="64" y="28" font-size="14" font-weight="750" fill="#172B30">Product launch thread</text>
      <text x="64" y="48" font-size="12" fill="#718286">X, LinkedIn, TikTok • 5 variants</text>
      <rect x="506" y="18" width="92" height="26" rx="13" fill="#E2F4F0"/>
      <text x="527" y="36" font-size="12" font-weight="700" fill="#166153">Ready</text>
    </g>

    <g transform="translate(26 162)">
      <rect width="638" height="62" rx="14" fill="#FFFFFF" stroke="#E8F0F0"/>
      <rect x="16" y="15" width="32" height="32" rx="10" fill="#EAF0F2"/>
      <text x="64" y="28" font-size="14" font-weight="750" fill="#172B30">Founder story clips</text>
      <text x="64" y="48" font-size="12" fill="#718286">Short video captions • awaiting media</text>
      <rect x="498" y="18" width="100" height="26" rx="13" fill="#FFF4D8"/>
      <text x="520" y="36" font-size="12" font-weight="700" fill="#74540D">Review</text>
    </g>

    <g transform="translate(26 236)">
      <rect width="638" height="62" rx="14" fill="#FFFFFF" stroke="#E8F0F0"/>
      <rect x="16" y="15" width="32" height="32" rx="10" fill="#EAF0F2"/>
      <text x="64" y="28" font-size="14" font-weight="750" fill="#172B30">Customer proof carousel</text>
      <text x="64" y="48" font-size="12" fill="#718286">Instagram, Facebook • scheduled tomorrow</text>
      <rect x="490" y="18" width="108" height="26" rx="13" fill="#EEF4F4"/>
      <text x="511" y="36" font-size="12" font-weight="700" fill="#52666B">Queued</text>
    </g>
  </g>

  <g transform="translate(1024 342)" font-family="Inter, Arial, sans-serif">
    <rect width="376" height="326" rx="20" fill="#FFFFFF" stroke="#DDE9E8" filter="url(#smallShadow)"/>
    <text x="24" y="38" font-size="18" font-weight="800" fill="#172B30">Growth signal</text>
    <text x="24" y="62" font-size="13" fill="#6C7E82">Last 7 days performance</text>
    <path d="M34 252C72 216 98 222 130 180C160 142 190 150 222 112C254 74 294 98 338 58" stroke="url(#brand)" stroke-width="5" stroke-linecap="round"/>
    <path d="M34 252C72 216 98 222 130 180C160 142 190 150 222 112C254 74 294 98 338 58L338 270H34V252Z" fill="#23CFA7" opacity="0.10"/>
    <g transform="translate(24 272)">
      <text x="0" y="0" font-size="28" font-weight="850" fill="#172B30">+38.4%</text>
      <text x="122" y="-4" font-size="13" font-weight="750" fill="#1AAE91">reach</text>
    </g>
  </g>

  <g transform="translate(304 700)" font-family="Inter, Arial, sans-serif">
    <rect width="338" height="196" rx="20" fill="#FFFFFF" stroke="#DDE9E8"/>
    <text x="24" y="38" font-size="17" font-weight="800" fill="#172B30">Platform mix</text>
    <circle cx="82" cy="112" r="44" stroke="#E7EFEF" stroke-width="16"/>
    <path d="M82 68A44 44 0 0 1 126 112" stroke="#23CFA7" stroke-width="16" stroke-linecap="round"/>
    <path d="M126 112A44 44 0 0 1 62 151" stroke="#103F52" stroke-width="16" stroke-linecap="round"/>
    <text x="156" y="91" font-size="13" fill="#6C7E82">Short video</text>
    <text x="156" y="118" font-size="13" fill="#6C7E82">Social posts</text>
    <text x="156" y="145" font-size="13" fill="#6C7E82">Long form</text>
  </g>

  <g transform="translate(672 700)" font-family="Inter, Arial, sans-serif">
    <rect width="338" height="196" rx="20" fill="#FFFFFF" stroke="#DDE9E8"/>
    <text x="24" y="38" font-size="17" font-weight="800" fill="#172B30">AI assistant</text>
    <rect x="24" y="66" width="290" height="46" rx="14" fill="#F5FAFA"/>
    <text x="42" y="94" font-size="13" fill="#50666B">Adapt this draft for LinkedIn...</text>
    <rect x="24" y="126" width="172" height="38" rx="19" fill="url(#brand)"/>
    <text x="50" y="150" font-size="13" font-weight="800" fill="#FFFFFF">Generate variants</text>
  </g>

  <g transform="translate(1040 700)" font-family="Inter, Arial, sans-serif">
    <rect width="360" height="196" rx="20" fill="#FFFFFF" stroke="#DDE9E8"/>
    <text x="24" y="38" font-size="17" font-weight="800" fill="#172B30">Publishing calendar</text>
    <g transform="translate(24 62)">
      <rect width="42" height="42" rx="12" fill="#DDF1ED"/>
      <rect x="54" width="42" height="42" rx="12" fill="#F4F8F8"/>
      <rect x="108" width="42" height="42" rx="12" fill="#F4F8F8"/>
      <rect x="162" width="42" height="42" rx="12" fill="#DDF1ED"/>
      <rect x="216" width="42" height="42" rx="12" fill="#F4F8F8"/>
      <rect x="270" width="42" height="42" rx="12" fill="#F4F8F8"/>
      <text x="15" y="27" font-size="13" font-weight="800" fill="#176154">12</text>
      <text x="69" y="27" font-size="13" font-weight="800" fill="#708085">13</text>
      <text x="123" y="27" font-size="13" font-weight="800" fill="#708085">14</text>
      <text x="177" y="27" font-size="13" font-weight="800" fill="#176154">15</text>
      <text x="231" y="27" font-size="13" font-weight="800" fill="#708085">16</text>
      <text x="285" y="27" font-size="13" font-weight="800" fill="#708085">17</text>
    </g>
    <text x="24" y="148" font-size="13" fill="#6C7E82">8 posts scheduled across 4 channels</text>
  </g>
</svg>
